# Alias OBJ Model File
# Exported from SketchUp, (c) 2000-2012 Trimble Navigation Limited
# File units = meters

mtllib USM_Stadium.mtl

g Mesh1 Model

usemtl FrontColor
v 437.753 0 -184.565
vt -17234.4 7266.36
vn 0 -1 -0
v 398.33 0 -194.828
vt -15682.3 7670.38
v 365.895 0 -207.301
vt -14405.3 8161.45
v 372.443 0 -223.67
vt -14663.1 8805.91
v 437.063 0 -192.649
vt -17207.2 7584.62
f 1/1/1 2/2/1 3/3/1 4/4/1 5/5/1 

vt 13244.2 0
vn -0.251917 0 0.967749
vt 14848 0
v 437.753 56.99 -184.565
vt 14848 2243.7
v 437.753 101.73 -184.565
vt 14848 4005.12
v 398.33 101.73 -194.828
vt 13244.2 4005.12
f 2/6/2 1/7/2 6/8/2 7/9/2 8/10/2 

v 510.937 -2.31009e-14 -170.734
vt -18517.4 -9.46574e-13
vn 0.185706 3.58673e-18 -0.982605
vt -15585.2 -3.70886e-14
vt -15585.2 2243.7
v 510.937 56.99 -170.734
vt -18517.4 2243.7
f 9/11/3 1/12/3 6/13/3 10/14/3 

v 729.235 56.99 -262.689
vt -28710 10342.1
vn 1.15229e-18 -1 -1.15955e-16
v 785.887 56.99 -283.778
vt -30940.4 11172.4
v 789.894 56.99 -283.778
vt -31098.2 11172.4
v 854.866 56.99 -283.778
vt -33656.1 11172.4
v 854.866 56.99 -230.618
vt -33656.1 9079.44
v 803.396 56.99 -230.618
vt -31629.7 9079.44
v 789.496 56.99 -221.652
vt -31082.5 8726.47
v 788.176 56.99 -225.156
vt -31030.6 8864.41
v 724.747 56.99 -196.213
vt -28533.4 7724.93
v 724.747 56.99 -184.493
vt -28533.4 7263.52
v 654.309 56.99 -170.734
vt -25760.2 6721.81
v 564.149 56.99 -170.734
vt -22210.6 6721.81
vt -20115.6 6721.81
v 437.063 56.99 -192.649
v 372.443 56.99 -223.67
v 356.739 56.99 -231.209
vt -14044.8 9102.72
v 305.029 56.99 -231.209
vt -12009 9102.72
v 305.029 56.99 -282.095
vt -12009 11106.1
v 366.867 56.99 -282.095
vt -14443.6 11106.1
v 376.579 56.99 -282.095
vt -14825.9 11106.1
v 413.04 56.99 -268.451
vt -16261.4 10568.9
v 452.891 56.99 -258.408
vt -17830.3 10173.5
v 550.772 56.99 -242.039
vt -21683.9 9529.11
v 615.322 56.99 -242.039
vt -24225.3 9529.11
f 11/15/4 12/16/4 13/17/4 14/18/4 15/19/4 16/20/4 17/21/4 18/22/4 19/23/4 20/24/4 21/25/4 22/26/4 10/27/4 6/1/4 23/5/4 24/4/4 25/28/4 26/29/4 27/30/4 28/31/4 29/32/4 30/33/4 31/34/4 32/35/4 33/36/4 

v 729.235 0 -262.689
vt 30514.3 0
vn 0.348869 0 0.937171
v 785.887 -1.62278e-27 -283.778
vt 32894.2 -6.38888e-26
v 785.887 54.7753 -283.778
vt 32894.2 2156.51
vt 32894.2 2243.7
vt 30514.3 2243.7
v 729.235 30.51 -262.689
vt 30514.3 1201.18
f 34/37/5 35/38/5 36/39/5 12/40/5 11/41/5 37/42/5 

v 785.887 -1.62278e-27 -301.038
vt 11851.9 -6.38888e-26
vn 1 0 -0
v 785.887 44.73 -301.038
vt 11851.9 1761.02
v 785.887 44.73 -708.675
vt 27900.6 1761.02
v 785.887 -1.62278e-27 -708.675
vt 27900.6 -6.38888e-26
v 785.887 -1.62278e-27 -726.545
vt 28604.1 -6.38888e-26
v 785.887 54.7753 -726.545
vt 28604.1 2156.51
vt 11172.4 2156.51
vt 11172.4 -6.38888e-26
f 38/43/6 39/44/6 40/45/6 41/46/6 42/47/6 43/48/6 36/49/6 35/50/6 

vt -30819.9 -6.38888e-26
vn 0.0100358 0 -0.99995
v 706.558 0 -301.835
vt -27696.6 0
v 706.558 5.85 -301.835
vt -27696.6 230.315
vt -30819.9 1761.02
f 38/51/7 44/52/7 45/53/7 39/54/7 

vt 11883.3 0
v 706.558 0 -708.675
vt 27900.6 0
v 706.558 5.85 -708.675
vt 27900.6 230.315
vt 11883.3 230.315
f 44/55/6 46/56/6 47/57/6 45/58/6 

vt 27817.2 0
vn 0 0 1
vt 30940.4 -6.38888e-26
vt 30940.4 1761.02
vt 27817.2 230.315
f 46/59/8 41/60/8 40/61/8 47/62/8 

vt 27900.6 25079.9
vn 0.440093 -0.897952 2.73219e-19
vt 27900.6 28558.1
vt 11851.9 28558.1
vt 11883.3 25079.9
f 47/63/9 40/64/9 39/65/9 45/66/9 

v 854.866 -1.62278e-27 -726.545
vt 33656.1 -6.38888e-26
v 854.866 34.29 -726.545
vt 33656.1 1350
v 854.866 92.9 -726.545
vt 33656.1 3657.48
vt 30940.4 2156.51
f 42/60/8 48/67/8 49/68/8 50/69/8 43/70/8 

v 860.466 -1.62278e-27 -726.545
vt 33876.6 -6.38888e-26
v 860.466 34.29 -726.545
vt 33876.6 1350
f 48/67/8 51/71/8 52/72/8 49/68/8 

v 860.466 -1.62278e-27 -776.585
vt 30574.2 -6.38888e-26
v 860.466 34.29 -776.585
vt 30574.2 1350
vt 28604.1 1350
f 51/47/6 53/73/6 54/74/6 52/75/6 

v 928.086 -1.62278e-27 -776.585
vt 36538.8 -6.38888e-26
v 928.086 34.29 -776.585
vt 36538.8 1350
f 53/71/8 55/76/8 56/77/8 54/72/8 

vt -30574.2 -6.38888e-26
vn -1 0 -0
v 928.086 -1.62278e-27 -685.585
vt -26991.5 -6.38888e-26
v 928.086 34.29 -685.585
vt -26991.5 1350
vt -30574.2 1350
f 55/78/10 57/79/10 58/80/10 56/81/10 

v 944.716 -1.62278e-27 -685.585
vt 37193.5 -6.38888e-26
v 944.716 34.29 -685.585
vt 37193.5 1350
f 57/76/8 59/82/8 60/83/8 58/77/8 

v 944.716 -1.62278e-27 -647.335
vt -25485.6 -6.38888e-26
v 944.716 34.29 -647.335
vt -25485.6 1350
f 59/79/10 61/84/10 62/85/10 60/80/10 

vt -37193.5 -6.38888e-26
vn 0 0 -1
v 854.866 -1.62278e-27 -647.335
vt -33656.1 -6.38888e-26
v 854.866 34.29 -647.335
vt -33656.1 1350
vt -37193.5 1350
f 61/86/11 63/87/11 64/88/11 62/89/11 

v 854.866 -1.62278e-27 -620.69
vt -24436.6 -6.38888e-26
v 854.866 62.48 -620.69
vt -24436.6 2459.84
v 854.866 92.9 -620.69
vt -24436.6 3657.48
v 854.866 92.9 -647.335
vt -25485.6 3657.48
f 63/84/10 65/90/10 66/91/10 67/92/10 68/93/10 64/85/10 

v 916.066 -1.62278e-27 -620.69
vt 36065.6 -6.38888e-26
v 916.066 62.48 -620.69
vt 36065.6 2459.84
vt 33656.1 2459.84
f 65/67/8 69/94/8 70/95/8 66/96/8 

v 916.066 -1.62278e-27 -489.83
vt -19284.6 -6.38888e-26
v 916.066 62.48 -489.83
vt -19284.6 2459.84
f 69/90/10 71/97/10 72/98/10 70/91/10 

vt -36065.6 -6.38888e-26
v 854.866 -1.62278e-27 -489.83
v 854.866 62.48 -489.83
vt -33656.1 2459.84
vt -36065.6 2459.84
f 71/99/11 73/87/11 74/100/11 72/101/11 

v 854.866 -1.62278e-27 -283.778
vt -11172.4 -6.38888e-26
vt -11172.4 2243.7
v 854.866 92.9 -283.778
vt -11172.4 3657.48
v 854.866 92.9 -489.83
vt -19284.6 3657.48
f 73/97/10 75/102/10 14/103/10 76/104/10 77/105/10 74/98/10 

v 854.866 -1.62278e-27 -230.618
vt -9079.44 -6.38888e-26
vt -9079.44 2243.7
f 75/102/10 78/106/10 15/107/10 14/103/10 

vt -33656.1 -1.14331e-12
vn 0 1.25922e-16 -1
v 803.396 -1.62278e-27 -230.618
vt -31629.7 -1.14331e-12
vt -31629.7 2243.7
vt -33656.1 2243.7
f 78/108/12 79/109/12 16/110/12 15/111/12 

vt -31501.5 -6.38888e-26
vn -0.542042 0 -0.840351
v 789.496 4.96955e-23 -221.652
vt -30850.4 1.95652e-21
vt -30850.4 2243.7
vt -31501.5 2243.7
f 79/112/13 80/113/13 17/114/13 16/115/13 

vt 2792.9 1.95652e-21
vn -0.935783 0 0.352577
v 795.177 -4.79472e-23 -206.575
vt 3427.24 -1.88768e-21
v 795.177 102.35 -206.575
vt 3427.24 4029.53
v 789.496 102.35 -221.652
vt 2792.9 4029.53
vt 2792.9 2243.7
f 80/116/14 81/117/14 82/118/14 83/119/14 17/120/14 

vt -32305.5 -1.88768e-21
vn -0.299168 0 -0.9542
v 724.747 -1.183e-18 -184.493
vt -29399.6 -4.6575e-17
vt -29399.6 2243.7
v 724.747 102.35 -184.493
vt -29399.6 4029.53
vt -32305.5 4029.53
f 81/121/15 84/122/15 20/123/15 85/124/15 82/125/15 

vt -29396.6 -1.12415e-14
vn -0.191713 6.74977e-18 -0.981451
v 654.309 -2.31009e-14 -170.734
vt -26571 -9.2068e-13
vt -26571 2243.7
vt -29396.6 2243.7
f 84/126/16 86/127/16 21/128/16 20/129/16 

vt -25760.2 -1.75591e-12
v 564.149 -2.31009e-14 -170.734
vt -22210.6 -1.75591e-12
vt -22210.6 2243.7
vt -25760.2 2243.7
f 86/130/12 87/131/12 22/132/12 21/133/12 

vt -20115.6 -1.75591e-12
vt -20115.6 2243.7
f 87/131/12 9/134/12 10/135/12 22/132/12 

vt 7263.52 2243.7
vt 7724.93 2243.7
v 724.747 102.35 -196.213
vt 7724.93 4029.53
vt 7263.52 4029.53
f 20/136/6 19/137/6 88/138/6 85/139/6 

vt 29165.4 2243.7
vn 0.415128 0 0.909763
vt 31910.3 2243.7
v 788.176 102.35 -225.156
vt 31910.3 4029.53
vt 29165.4 4029.53
f 19/140/17 18/141/17 89/142/17 88/143/17 

vt 2645.5 2243.7
vt 2645.5 4029.53
f 18/144/14 17/120/14 83/119/14 89/145/14 

vt -31306.2 8132.87
f 89/22/1 83/21/1 82/146/1 85/24/1 88/23/1 

vt -31098.2 2243.7
vt -30940.4 2243.7
vt -30940.4 2156.51
v 789.894 56.99 -283.778
vt -33656.1 3657.48
f 13/147/11 12/148/11 36/149/11 90/147/11 76/150/11 14/111/11 

vt 28604.1 31225.6
vn 0.483736 -0.875214 -1.818e-17
v 854.866 92.9 -708.675
vt 27900.6 31225.6
vt 25485.6 31225.6
vt 24436.6 31225.6
vt 19284.6 31225.6
vt 11172.4 31225.6
vt 11172.4 28302.9
vt 11172.4 28122.7
vt 28604.1 28122.7
f 50/151/18 91/152/18 68/153/18 67/154/18 77/155/18 76/156/18 13/157/18 36/158/18 43/159/18 

vt -28604.1 3657.48
vt -28604.1 1350
v 854.866 34.29 -708.675
vt -27900.6 1350
vt -27900.6 3657.48
f 50/160/10 49/161/10 92/162/10 91/163/10 

vt -37193.5 25485.6
vt -33656.1 25485.6
vt -33656.1 27900.6
vt -33656.1 28604.1
vt -33876.6 28604.1
vt -33876.6 30574.2
vt -36538.8 30574.2
vt -36538.8 26991.5
vt -37193.5 26991.5
f 62/164/1 64/165/1 92/166/1 49/167/1 52/168/1 54/169/1 56/170/1 58/171/1 60/172/1 

f 91/163/10 92/162/10 64/85/10 68/93/10 

f 67/92/10 66/91/10 74/98/10 77/105/10 

vt -36065.6 19284.6
vt -33656.1 19284.6
vt -33656.1 24436.6
vt -36065.6 24436.6
f 72/173/1 74/174/1 66/175/1 70/176/1 

vt -30094.3 1201.18
vn -0.178363 1.2366e-16 -0.983965
v 615.322 30.51 -242.039
vt -25536.4 1201.18
vt -25536.4 2243.7
vt -30094.3 2243.7
f 37/177/19 93/178/19 33/179/19 11/180/19 

vt -30094.3 -3447.67
vn -0.102475 0.818485 -0.565315
v 697.743 8.3 -289.136
vt -29060.1 -4969.64
vt -25536.4 -3447.67
f 37/181/20 94/182/20 93/183/20

v 697.743 0 -289.136
vt -13715.3 -2.07062e-12
vn 0.643109 7.8482e-17 -0.765775
vt -13715.3 326.772
vt -15334.3 1201.18
vt -15334.3 -2.07062e-12
f 95/184/21 94/185/21 37/186/21 34/187/21 

v 611.633 0 -278.898
vt -25208 0
vn -0.118064 0 -0.993006
v 611.633 8.3 -278.898
vt -25208 326.772
vt -28622 326.772
vt -28622 0
f 96/188/22 97/189/22 94/190/22 95/191/22 

v 528.093 0 -278.898
vt -20791 0
v 528.093 8.3 -278.898
vt -20791 326.772
vt -24080 326.772
vt -24080 0
f 98/192/11 99/193/11 97/194/11 96/195/11 

v 489.961 0 -289.433
vt -15558.8 0
vn 0.266297 0 -0.963891
v 489.961 8.3 -289.433
vt -15558.8 326.772
vt -17116.3 326.772
vt -17116.3 0
f 100/196/23 101/197/23 99/198/23 98/199/23 

v 452.891 0 -258.408
vt -20202.9 0
vn -0.641808 0 -0.766865
v 452.891 30.51 -258.408
vt -20202.9 1201.18
vt -22106.1 326.772
vt -22106.1 0
f 102/200/24 103/201/24 101/202/24 100/203/24 

v 413.04 0 -268.451
vt 13185.6 -1.74137e-12
vn -0.244377 -1.22438e-16 0.96968
vt 14803.6 -1.74137e-12
vt 14803.6 1201.18
vt 14803.6 2243.7
vt 13185.6 2243.7
f 104/204/25 102/205/25 103/206/25 31/207/25 30/208/25 

v 550.772 30.51 -242.039
vt -19815.2 1201.18
vn 0.164939 1.24423e-16 -0.986304
vt -15908.1 1201.18
vt -15908.1 2243.7
vt -19815.2 2243.7
f 105/209/26 103/210/26 31/211/26 32/212/26 

vt -15908.1 -10480.1
vn 0.0853722 0.855623 -0.510511
vt -19815.2 -10480.1
vt -17146.1 -12169.4
f 103/213/27 105/214/27 101/215/27

vt -17116.3 -12680
vn 0.16021 0.798782 -0.579897
vt -15558.8 -12680
vt -18363.4 -11226.6
f 99/216/28 101/217/28 105/218/28

vt -20791 -9236.16
vn 1.14962e-17 0.856521 -0.516113
vt -21683.9 -7541.94
vt -24225.3 -7541.94
vt -24080 -9236.16
f 99/219/29 105/220/29 93/221/29 97/222/29 

vt -24225.3 1201.18
vt -21683.9 1201.18
vt -21683.9 2243.7
vt -24225.3 2243.7
f 93/223/12 105/224/12 32/225/12 33/226/12 

vt -28622 -6744.71
vn -0.0607196 0.857615 -0.510695
vt -25208 -6744.71
vt -25180.9 -5044.49
f 94/227/30 97/228/30 93/229/30

v 376.579 0 -282.095
vt 9993.42 0
vn -0.350459 0 0.936578
vt 11526.1 0
vt 11526.1 2243.7
vt 9993.42 2243.7
v 376.579 51.3 -282.095
vt 9993.42 2019.69
f 106/230/31 104/231/31 30/232/31 29/233/31 107/234/31 

vt 14825.9 2243.7
vt 14443.6 2243.7
vt 14825.9 2019.69
f 29/235/8 28/236/8 107/237/8

v 305.029 93.22 -282.095
vt 11106.1 -8506.33
vn 0.505512 0.862819 -1.1469e-17
vt 11106.1 -11328
vt 11106.1 -11771.1
v 305.029 93.22 -727.609
vt 28646 -8506.33
v 305.029 93.22 -708.009
vt 27874.4 -8506.33
v 305.029 93.22 -519.987
vt 20471.9 -8506.33
v 305.029 93.22 -388.377
vt 15290.4 -8506.33
f 108/238/32 28/239/32 107/240/32 109/241/32 110/242/32 111/243/32 112/244/32 

vt 14825.9 0
vt 12009 2243.7
vt 12009 3670.08
v 366.867 56.99 -282.095
v 305.029 56.99 -282.095
v 305.029 0 -282.095
vt 12009 0
f 106/245/8 107/237/8 28/236/8 27/246/8 108/247/8 113/236/8 114/246/8 115/248/8 

vt 10928.6 0
vn 0.999929 0 -0.0119167
v 376.359 0 -300.519
vt 11654 0
v 376.359 44.58 -300.519
vt 11654 1755.12
v 376.359 51.3 -300.519
vt 11654 2019.69
vt 10928.6 2019.69
f 106/249/33 116/250/33 117/251/33 118/252/33 107/253/33 

v 376.359 0 -727.609
vt -14817.3 28646
v 376.359 0 -708.009
vt -14817.3 27874.4
vt -14817.3 11831.5
v 305.029 0 -388.377
vt -12009 15290.4
v 305.029 0 -519.987
vt -12009 20471.9
v 305.029 0 -708.009
vt -12009 27874.4
v 305.029 0 -727.609
vt -12009 28646
f 119/254/1 120/255/1 116/256/1 106/32/1 115/30/1 121/257/1 122/258/1 123/259/1 124/260/1 

vt 27874.4 0
vt 28646 0
v 376.359 51.3 -727.609
vt 28646 2019.69
v 376.359 51.3 -708.009
vt 27874.4 2019.69
v 376.359 44.58 -708.009
vt 27874.4 1755.12
f 120/261/6 119/262/6 125/263/6 126/264/6 127/265/6 

vt -12009 0
vt -12009 3670.08
vt -14817.3 2019.69
vt -14817.3 0
f 124/266/11 109/267/11 125/268/11 119/269/11 

vt -28646 0
vt -27874.4 0
vt -27874.4 3670.08
vt -28646 3670.08
f 124/270/10 123/271/10 110/272/10 109/273/10 

vt -20471.9 0
v 305.029 48.28 -519.987
vt -20471.9 1900.79
vt -20471.9 3670.08
f 123/271/10 122/274/10 128/275/10 111/276/10 110/272/10 

v 242.835 0 -519.987
vt -9560.45 0
v 242.835 48.28 -519.987
vt -9560.45 1900.79
vt -12009 1900.79
f 122/266/11 129/277/11 130/278/11 128/279/11 

v 242.835 0 -388.377
vt -9560.45 15290.4
vt -9560.45 20471.9
f 121/257/1 131/280/1 129/281/1 122/258/1 

vt 9560.45 0
v 305.029 48.28 -388.377
vt 12009 1900.79
v 242.835 48.28 -388.377
vt 9560.45 1900.79
f 131/282/8 121/248/8 132/283/8 133/284/8 

vt -15290.4 0
vt -11106.1 0
vt -11106.1 2243.7
vt -11106.1 3670.08
vt -15290.4 3670.08
vt -15290.4 1900.79
f 121/285/10 115/286/10 27/287/10 108/288/10 112/289/10 132/290/10 

v 305.029 0 -231.209
vt 9102.72 0
vt 11106.1 0
vt 11106.1 2243.7
vt 9102.72 2243.7
f 134/291/6 115/292/6 27/293/6 26/294/6 

v 356.739 0 -231.209
vt -14044.8 -1.14624e-12
vt -12009 -1.14624e-12
vt -12009 2243.7
vt -14044.8 2243.7
f 135/295/12 134/296/12 26/297/12 25/298/12 

vt -9407.97 0
vn 0.432767 0 -0.901506
vt -8722.14 0
vt -8722.14 2243.7
vt -9407.97 2243.7
f 4/299/34 135/300/34 25/301/34 24/302/34 

vt -13621.7 0
vn -0.928482 0 -0.371377
vt -12927.6 0
v 365.895 101.73 -207.301
vt -12927.6 4005.12
v 372.443 101.73 -223.67
vt -13621.7 4005.12
vt -13621.7 2243.7
f 4/303/35 3/304/35 136/305/35 137/306/35 24/307/35 

vt 10516 0
vn -0.358936 0 0.933362
vt 11884.1 0
vt 11884.1 4005.12
vt 10516 4005.12
f 3/308/36 2/309/36 8/310/36 136/311/36 

vt 15682.3 7670.38
vn 0 1 -0
vt 17234.4 7266.36
v 437.063 101.73 -192.649
vt 17207.2 7584.62
vt 14663.1 8805.91
vt 14405.3 8161.45
f 8/312/37 7/313/37 138/314/37 137/315/37 136/316/37 

vt 5775.04 2243.7
vn 0.99638 -5.84159e-19 -0.0850054
vt 6094.46 2243.7
vt 6094.46 4005.12
vt 5775.04 4005.12
f 6/317/38 23/318/38 138/319/38 7/320/38 

vt -12230 2243.7
vn 0.432767 1.20175e-31 -0.901506
vt -9407.97 4005.12
vt -12230 4005.12
f 23/321/39 24/302/39 137/322/39 138/323/39 

f 111/276/10 128/275/10 132/290/10 112/289/10 

vt 9560.45 15290.4
vt 12009 15290.4
vt 12009 20471.9
vt 9560.45 20471.9
f 133/324/37 132/325/37 128/326/37 130/327/37 

f 122/274/10 121/285/10 132/290/10 128/275/10 

f 129/274/10 131/285/10 133/290/10 130/275/10 

vt 28646 -8493.93
vn 0.506669 0.862141 6.31814e-18
vt 11831.5 -11751.3
vt 27874.4 -11751.3
vt 28646 -11751.3
f 109/328/40 118/329/40 126/330/40 125/331/40 

vt 11654 -11558.6
vn 0.534747 0.844988 -0.00637286
vt 28500.9 -8472.5
vt 10928.6 -11558.6
f 118/332/41 109/333/41 107/334/41

vt 11831.5 1755.12
vt 11831.5 2019.69
f 117/335/6 127/265/6 126/264/6 118/336/6 

v 479.889 7.04 -708.009
vt 27874.4 -17667.2
vn 0.340883 0.940106 -0
vt 27874.4 -13331.5
vt 11831.5 -13331.5
v 479.889 7.04 -300.519
vt 11831.5 -17667.2
f 139/337/42 127/338/42 117/339/42 140/340/42 

v 479.889 0 -708.009
vt -18893.3 0
vt -14817.3 1755.12
vt -18893.3 277.165
f 141/341/11 120/269/11 127/342/11 139/343/11 

vt -18893.3 27874.4
v 479.889 0 -300.519
vt -18893.3 11831.5
f 120/255/1 141/344/1 142/345/1 116/256/1 

vt 11831.5 0
vt 27874.4 277.165
vt 11831.5 277.165
f 142/346/6 141/261/6 139/347/6 140/348/6 

vt 18893.3 277.165
vt 14817.3 1755.12
vt 14817.3 0
vt 18893.3 0
f 140/349/8 117/350/8 116/351/8 142/352/8 

f 116/346/6 120/261/6 127/265/6 117/335/6 

vt -24080 10980.2
vt -27470.2 11383.3
v 615.322 0 -242.039
v 550.772 0 -242.039
vt -19289.8 11395
vt -20791 10980.2
f 96/353/1 95/354/1 34/15/1 143/36/1 144/35/1 102/34/1 100/355/1 98/356/1 

g Mesh2 Model

v 782.557 40.13 -833.28
vt -30809.3 32806.3
v 661.047 40.13 -833.28
vt -26025.5 32806.3
v 661.047 40.13 -871.05
vt -26025.5 34293.3
v 539.377 40.13 -871.05
vt -21235.3 34293.3
v 539.377 40.13 -833.28
vt -21235.3 32806.3
v 437.286 40.13 -833.28
vt -17216 32806.3
v 437.286 40.13 -922.56
vt -17216 36321.3
v 508.806 40.13 -922.56
vt -20031.7 36321.3
v 508.806 40.13 -966.85
vt -20031.7 38065
v 588.786 40.13 -966.85
vt -23180.5 38065
v 597.501 40.13 -974.997
vt -23523.7 38385.7
v 615.491 40.13 -974.997
vt -24231.9 38385.7
v 626.715 40.13 -969.012
vt -24673.8 38150.1
v 703.675 40.13 -969.012
vt -27703.7 38150.1
v 703.675 40.13 -919.192
vt -27703.7 36188.7
v 782.557 40.13 -919.192
vt -30809.3 36188.7
f 145/357/1 146/358/1 147/359/1 148/360/1 149/361/1 150/362/1 151/363/1 152/364/1 153/365/1 154/366/1 155/367/1 156/368/1 157/369/1 158/370/1 159/371/1 160/372/1 

v 782.557 0 -833.28
vt -30809.3 0
v 661.047 0 -833.28
vt -26025.5 0
vt -26025.5 1579.92
vt -30809.3 1579.92
f 161/373/11 162/374/11 146/375/11 145/376/11 

v 539.377 0 -833.28
vt -21235.3 0
vt -21235.3 1579.92
v 539.377 109.43 -833.28
vt -21235.3 4308.27
v 661.047 109.43 -833.28
vt -26025.5 4308.27
f 162/374/11 163/377/11 149/378/11 164/379/11 165/380/11 146/375/11 

v 437.286 0 -833.28
vt -17216 0
vt -17216 1579.92
f 163/377/11 166/381/11 150/382/11 149/378/11 

vt 32806.3 0
v 437.286 0 -922.56
vt 36321.3 0
vt 36321.3 1579.92
vt 32806.3 1579.92
f 166/383/6 167/384/6 151/385/6 150/386/6 

vt 17216 0
v 508.806 0 -922.56
vt 20031.7 0
vt 20031.7 1579.92
vt 17216 1579.92
f 167/387/8 168/388/8 152/389/8 151/390/8 

v 508.806 0 -966.85
vt 38065 0
vt 38065 1579.92
f 168/384/6 169/391/6 153/392/6 152/385/6 

v 588.786 0 -966.85
vt 23180.5 0
vt 23180.5 1579.92
f 169/388/8 170/393/8 154/394/8 153/389/8 

vt 42928.2 0
vn 0.682899 0 0.730513
v 597.501 0 -974.997
vt 43397.9 0
vt 43397.9 1579.92
vt 42928.2 1579.92
f 170/395/43 171/396/43 155/397/43 154/398/43 

vt 23523.7 0
v 615.491 0 -974.997
vt 24231.9 0
vt 24231.9 1579.92
vt 23523.7 1579.92
f 171/399/8 172/400/8 156/401/8 155/402/8 

vt 3321.06 0
vn -0.470514 0 0.882393
v 626.715 0 -969.012
vt 3821.85 0
vt 3821.85 1579.92
vt 3321.06 1579.92
f 172/403/44 173/404/44 157/405/44 156/406/44 

vt 24673.8 0
v 703.675 0 -969.012
vt 27703.7 0
vt 27703.7 1579.92
vt 24673.8 1579.92
f 173/407/8 174/408/8 158/409/8 157/410/8 

vt -38150.1 0
v 703.675 0 -919.192
vt -36188.7 0
vt -36188.7 1579.92
vt -38150.1 1579.92
f 174/411/10 175/412/10 159/413/10 158/414/10 

v 782.557 0 -919.192
vt 30809.3 0
vt 30809.3 1579.92
f 175/408/8 176/415/8 160/416/8 159/409/8 

vt -32806.3 0
vt -32806.3 1579.92
f 176/412/10 161/417/10 145/418/10 160/413/10 

vt 34293.3 1579.92
v 539.377 109.43 -871.05
vt 34293.3 4308.27
vt 32806.3 4308.27
f 149/386/6 148/419/6 177/420/6 164/421/6 

vt 21235.3 1579.92
vt 26025.5 1579.92
v 661.047 109.43 -871.05
vt 26025.5 4308.27
vt 21235.3 4308.27
f 148/422/8 147/423/8 178/424/8 177/425/8 

vt -34293.3 1579.92
vt -32806.3 4308.27
vt -34293.3 4308.27
f 147/426/10 146/418/10 165/427/10 178/428/10 

f 165/358/1 164/361/1 177/360/1 178/359/1 

g Mesh3 Model

usemtl Stadium_Cleaned
v 0 0 -0
vt 0 0
vn 0 0.0254 -0
v 1167.92 0 -0
vt 1 0
v 1167.92 0 -1054.77
vt 1 1
v 0 0 -1054.77
vt 0 1
f 179/429/45 180/430/45 181/431/45 182/432/45 

